# xmcd
#
# Track frame offsets:
#	150
#	12856
#	24652
#	36335
#	49635
#	61037
#	74562
#	85291
#	98651
#	111295
#
# Disc length: 1663 seconds
#
# Revision: 1
# Processed by: cddbd v1.5.1PL0 Copyright (c) Steve Scherf et al.
# Submitted via: audiograbber 1.83.01
#
DISCID=7d067d0a
DTITLE=Hank Locklin - Hank Locklin
DYEAR=1900
DGENRE=
TTITLE0=Sweetest Mistake
TTITLE1=Send Me Your Coffee Cup
TTITLE2=Scarlet Wings
TTITLE3=Come In Out Of The Rain
TTITLE4=If I Throw Away My Pride
TTITLE5=Irish Eyes
TTITLE6=Please Let Me Love You
TTITLE7=True Love Is Always True
TTITLE8=Woman In The Back Of My Mind
TTITLE9=Hang My Picture In Your Heart
EXTD=
EXTT0=
EXTT1=
EXTT2=
EXTT3=
EXTT4=
EXTT5=
EXTT6=
EXTT7=
EXTT8=
EXTT9=
PLAYORDER=
